<svg width="25" height="25" viewBox="0 0 25 25" fill="none" xmlns="http://www.w3.org/2000/svg">
<path d="M1.38796 13.5C1.86441 18.8636 6.13651 23.1356 11.5 23.612V23.9571C5.94652 23.4788 1.52124 19.0535 1.04288 13.5H1.38796ZM1.38796 11.5H1.04288C1.52124 5.94652 5.94652 1.52124 11.5 1.04288V1.38796C6.13651 1.86442 1.86442 6.13651 1.38796 11.5ZM13.5 1.04288C19.0535 1.52124 23.4788 5.94652 23.9571 11.5H23.612C23.1356 6.13651 18.8636 1.86441 13.5 1.38796V1.04288ZM23.9571 13.5C23.4788 19.0535 19.0535 23.4788 13.5 23.9571V23.612C18.8636 23.1356 23.1356 18.8636 23.612 13.5H23.9571Z" stroke="#8F9399" stroke-width="2"/>
<path d="M9.40676 10.5C9.72678 11.4906 10.5094 12.2732 11.5 12.5932V12.8551C10.3711 12.5191 9.48089 11.6289 9.14493 10.5H9.40676ZM9.40675 8.5H9.14493C9.4809 7.3711 10.3711 6.4809 11.5 6.14493V6.40675C10.5094 6.72677 9.72677 7.5094 9.40675 8.5ZM13.5 6.14493C14.6289 6.4809 15.5191 7.3711 15.8551 8.5H15.5932C15.2732 7.5094 14.4906 6.72677 13.5 6.40675V6.14493ZM15.8551 10.5C15.5191 11.6289 14.6289 12.5191 13.5 12.8551V12.5932C14.4906 12.2732 15.2732 11.4906 15.5932 10.5H15.8551Z" stroke="#8F9399" stroke-width="2"/>
<path d="M5.94177 20.1652L5.67927 19.9364C7.2144 18.3474 9.24612 17.2955 11.5001 17.0534V17.4545C9.34352 17.6911 7.40944 18.684 5.94177 20.1652ZM13.5001 17.4545V17.0534C15.754 17.2955 17.7857 18.3474 19.3207 19.9364L19.0583 20.1652C17.5906 18.684 15.6565 17.6911 13.5001 17.4545Z" stroke="#8F9399" stroke-width="2"/>
</svg>
