<svg width="28" height="28" viewBox="0 0 28 28" fill="none" xmlns="http://www.w3.org/2000/svg">
<g id="icon=headphones, hover=no, size=20" clip-path="url(#clip0_165_34531)">
<g id="Headphones">
<path id="Vector" d="M27 20V13.5227C27 6.60662 21.1798 1 14 1C6.82031 1 1 6.60662 1 13.5227V20" stroke="#8F9399" stroke-width="2.12927" stroke-linecap="round" stroke-linejoin="round"/>
<path id="Vector_2" d="M1 19.5692C1 17.0457 3.14903 15 5.8 15C7.56731 15 9 16.3638 9 18.0462V22.9538C9 24.6362 7.56731 26 5.8 26C3.14903 26 1 23.9543 1 21.4308V19.5692Z" stroke="#8F9399" stroke-width="2.12927" stroke-linecap="round" stroke-linejoin="round"/>
<path id="Vector_3" d="M19 18.0462C19 16.3638 20.4327 15 22.2 15C24.851 15 27 17.0457 27 19.5692V21.4308C27 23.9543 24.851 26 22.2 26C20.4327 26 19 24.6362 19 22.9538V18.0462Z" stroke="#8F9399" stroke-width="2.12927" stroke-linecap="round" stroke-linejoin="round"/>
</g>
</g>
<defs>
<clipPath id="clip0_165_34531">
<rect width="28" height="28" fill="white"/>
</clipPath>
</defs>
</svg>
