<svg
			width="28"
			height="28"
			viewBox="0 0 28 28"
			fill="none"
			xmlns="http://www.w3.org/2000/svg"
		>
			<g
				id="icon=settings, hover=no, size=20"
				clipPath="url(#clip0_165_34419)"
			>
				<g id="Settings">
					<path
						id="Vector"
						d="M3.44193 18.9038L5.26395 19.1891C6.60896 19.3997 7.5695 20.6316 7.47044 22.0195L7.33621 23.9006C7.29711 24.4486 7.58905 24.9645 8.07258 25.2032L9.42019 25.8671C9.90371 26.1058 10.4811 26.0164 10.876 25.6445L12.2301 24.3647C13.2285 23.4207 14.769 23.4207 15.7685 24.3647L17.1226 25.6445C17.5176 26.0179 18.0937 26.1058 18.5785 25.8671L19.9287 25.2019C20.411 24.9645 20.7016 24.4499 20.6626 23.9034L20.5282 22.0195C20.4292 20.6316 21.3897 19.3997 22.7347 19.1891L24.5567 18.9038C25.0872 18.8212 25.5147 18.4145 25.6345 17.8786L25.9669 16.3881C26.0869 15.8521 25.8744 15.2962 25.4313 14.9868L23.9103 13.9215C22.7881 13.135 22.4454 11.5992 23.1231 10.3926L24.0419 8.75806C24.3091 8.28209 24.2649 7.68615 23.9299 7.25687L22.998 6.06097C22.663 5.63167 22.1052 5.45437 21.5918 5.61568L19.8297 6.16763C18.5277 6.57558 17.1397 5.89165 16.6392 4.5971L15.964 2.84659C15.7659 2.33465 15.2824 1.99868 14.7442 2L13.2505 2.00401C12.7123 2.00533 12.2301 2.34398 12.0346 2.85727L11.3764 4.58777C10.8812 5.89032 9.48666 6.57959 8.18074 6.16895L6.3457 5.59302C5.83089 5.43037 5.27047 5.60901 4.93553 6.04098L4.01017 7.23819C3.67523 7.67149 3.63483 8.26877 3.90722 8.74472L4.84689 10.3832C5.53895 11.5911 5.20009 13.1416 4.07143 13.9323L2.56871 14.9855C2.12559 15.2962 1.91317 15.8521 2.03307 16.3868L2.36541 17.8772C2.484 18.4145 2.91148 18.8212 3.44193 18.9038Z"
						stroke="#8F9399"
						strokeWidth="2.12927"
						strokeLinecap="round"
						strokeLinejoin="round"
					/>
					<path
						id="Vector_2"
						d="M16.1215 11.8785C17.2928 13.05 17.2928 14.95 16.1215 16.1215C14.95 17.2928 13.05 17.2928 11.8785 16.1215C10.7072 14.95 10.7072 13.05 11.8785 11.8785C13.05 10.7072 14.95 10.7072 16.1215 11.8785Z"
						stroke="#8F9399"
						strokeWidth="2"
						strokeLinecap="round"
						strokeLinejoin="round"
					/>
				</g>
			</g>
			<defs>
				<clipPath id="clip0_165_34419">
					<rect width="28" height="28" fill="white" />
				</clipPath>
			</defs>
		</svg>