<svg width="19" height="22" viewBox="0 0 19 22" fill="none" xmlns="http://www.w3.org/2000/svg">
<g id="Frame 1000005890">
<path id="Vector" d="M14.25 17.0901C14.7448 17.0901 15.1656 16.9109 15.5123 16.5525C15.8591 16.1941 16.032 15.7595 16.0312 15.2489C16.0312 14.7375 15.8579 14.3025 15.5111 13.9441C15.1644 13.5857 14.744 13.4069 14.25 13.4077C13.7552 13.4077 13.3344 13.5869 12.9877 13.9453C12.6409 14.3037 12.468 14.7383 12.4688 15.2489C12.4688 15.7603 12.6421 16.1953 12.9889 16.5537C13.3356 16.9121 13.756 17.0909 14.25 17.0901ZM14.25 20.7725C14.8786 20.7725 15.4466 20.6281 15.9541 20.3392C16.4607 20.0504 16.8803 19.6604 17.2128 19.1694C16.7616 18.8879 16.2885 18.6756 15.7937 18.5324C15.299 18.3892 14.7844 18.3176 14.25 18.3176C13.7156 18.3176 13.201 18.3892 12.7063 18.5324C12.2115 18.6756 11.7388 18.8884 11.2884 19.1707C11.6201 19.6617 12.0397 20.0512 12.5471 20.3392C13.053 20.6281 13.6206 20.7725 14.25 20.7725ZM8.3125 21.9534C5.92721 21.221 3.94527 19.7271 2.36669 17.4719C0.788896 15.2158 0 12.6745 0 9.84802V3.20984L8.3125 0L16.625 3.20984V10.1524C16.4469 10.0829 16.2513 10.0215 16.0384 9.96831C15.8246 9.91348 15.6243 9.86316 15.4375 9.81733V4.05557L8.3125 1.31708L1.1875 4.05434V9.84802C1.1875 11.0616 1.36088 12.2236 1.70763 13.334C2.05358 14.4453 2.52542 15.4674 3.12313 16.4003C3.72083 17.3323 4.4274 18.1466 5.24281 18.8429C6.05823 19.5393 6.92827 20.0708 7.85294 20.4374L7.92181 20.4129C8.0176 20.6584 8.13715 20.8969 8.28044 21.1285C8.42294 21.3601 8.58523 21.5773 8.76731 21.7803C8.68656 21.8122 8.61056 21.8408 8.53931 21.8662C8.46806 21.8916 8.39246 21.9214 8.3125 21.9534ZM14.25 22C12.9271 22 11.8045 21.5237 10.8822 20.5712C9.95996 19.6187 9.49921 18.4583 9.5 17.0901C9.5 15.7227 9.96075 14.5623 10.8822 13.609C11.8037 12.6557 12.9263 12.1794 14.25 12.1802C15.5729 12.1802 16.6955 12.6565 17.6178 13.609C18.54 14.5615 19.0008 15.7219 19 17.0901C19 18.4575 18.5393 19.6179 17.6178 20.5712C16.6963 21.5246 15.5737 22.0008 14.25 22Z" fill="white"/>
</g>
</svg>
