<?xml version="1.0"?>
<svg width="700" height="100" xmlns="http://www.w3.org/2000/svg" xmlns:svg="http://www.w3.org/2000/svg" data-name="Слой 1">
 <defs>
  <style>.cls-1 {
        fill: #5488c7;
      }

      .cls-1, .cls-2 {
        stroke-width: 0px;
      }

      .cls-2 {
        fill: #232c77;
      }</style>
 </defs>
 <g class="layer">
  <title>Layer 1</title>
  <path class="cls-1" d="m434.9,28.51l-22.75,0l0,-13.4l61.95,0l0,13.4l-22.75,0l0,57.69l-16.45,0l0,-57.69z" id="svg_1"/>
  <path class="cls-1" d="m565.24,82.69c-5.86,-3.15 -10.46,-7.51 -13.82,-13.1c-3.35,-5.59 -5.02,-11.9 -5.02,-18.94s1.68,-13.36 5.02,-18.94c3.36,-5.58 7.96,-9.95 13.82,-13.1c5.85,-3.15 12.44,-4.72 19.75,-4.72c6.16,0 11.73,1.08 16.7,3.25c4.98,2.17 9.16,5.28 12.55,9.35l-10.56,9.74c-4.81,-5.55 -10.77,-8.32 -17.88,-8.32c-4.4,0 -8.33,0.96 -11.78,2.89c-3.45,1.93 -6.15,4.62 -8.07,8.07c-1.93,3.45 -2.9,7.38 -2.9,11.78s0.97,8.33 2.9,11.79c1.93,3.45 4.62,6.14 8.07,8.07c3.45,1.93 7.37,2.89 11.78,2.89c7.11,0 13.07,-2.81 17.88,-8.43l10.56,9.74c-3.39,4.13 -7.59,7.28 -12.59,9.45c-5.01,2.17 -10.59,3.25 -16.76,3.25c-7.24,0 -13.79,-1.57 -19.64,-4.72l-0.01,0z" id="svg_2"/>
  <path class="cls-1" d="m687.4,15.11l0,71.09l-16.45,0l0,-29.15l-32.29,0l0,29.15l-16.45,0l0,-71.09l16.45,0l0,28.03l32.29,0l0,-28.03l16.45,0z" id="svg_3"/>
  <path class="cls-2" d="m76.33,55.68c2.3,3.02 3.45,6.73 3.45,11.12c0,6.23 -2.42,11.02 -7.26,14.37c-4.84,3.35 -11.9,5.02 -21.17,5.02l-36.76,0l0,-71.09l34.73,0c8.67,0 15.32,1.66 19.96,4.98c4.64,3.31 6.96,7.82 6.96,13.5c0,3.45 -0.83,6.53 -2.49,9.24c-1.66,2.71 -3.98,4.84 -6.96,6.4c4.06,1.29 7.24,3.44 9.55,6.45l-0.01,0.01zm-45.4,-28.17l0,16.75l16.36,0c4.06,0 7.14,-0.71 9.24,-2.13s3.15,-3.52 3.15,-6.3s-1.05,-4.86 -3.15,-6.25c-2.1,-1.38 -5.18,-2.07 -9.24,-2.07l-16.36,0zm28.99,44.17c2.21,-1.42 3.31,-3.62 3.31,-6.6c0,-5.89 -4.37,-8.83 -13.1,-8.83l-19.2,0l0,17.57l19.2,0c4.33,0 7.6,-0.71 9.79,-2.13l0,-0.01z" id="svg_4"/>
  <path class="cls-2" d="m132.76,86.2l-13.71,-19.8l-15.12,0l0,19.8l-16.45,0l0,-71.09l30.77,0c6.3,0 11.76,1.06 16.4,3.15c4.64,2.1 8.21,5.08 10.71,8.94c2.5,3.86 3.76,8.43 3.76,13.71s-1.27,9.83 -3.81,13.65c-2.54,3.83 -6.15,6.75 -10.82,8.79l15.94,22.85l-17.67,0zm-4.16,-54.49c-2.58,-2.13 -6.34,-3.2 -11.27,-3.2l-13.4,0l0,24.78l13.4,0c4.93,0 8.69,-1.08 11.27,-3.26c2.57,-2.17 3.85,-5.21 3.85,-9.13s-1.28,-7.06 -3.85,-9.2l0,0.01z" id="svg_5"/>
  <path class="cls-2" d="m159.72,15.11l16.45,0l0,71.09l-16.45,0l0,-71.09z" id="svg_6"/>
  <path class="cls-2" d="m238.65,49.54l15.03,0l0,28.84c-3.86,2.91 -8.33,5.14 -13.4,6.7c-5.08,1.55 -10.19,2.33 -15.34,2.33c-7.38,0 -14.01,-1.57 -19.9,-4.72c-5.89,-3.15 -10.51,-7.51 -13.87,-13.1c-3.35,-5.59 -5.02,-11.9 -5.02,-18.94s1.68,-13.36 5.02,-18.94c3.36,-5.58 8.01,-9.95 13.97,-13.1c5.96,-3.15 12.66,-4.72 20.11,-4.72c6.23,0 11.88,1.05 16.96,3.15c5.08,2.1 9.35,5.15 12.79,9.14l-10.55,9.74c-5.08,-5.35 -11.21,-8.02 -18.39,-8.02c-4.54,0 -8.56,0.95 -12.08,2.84c-3.52,1.89 -6.26,4.57 -8.22,8.02c-1.97,3.45 -2.95,7.41 -2.95,11.88s0.98,8.33 2.95,11.79c1.96,3.45 4.69,6.14 8.17,8.07c3.49,1.93 7.46,2.89 11.93,2.89c4.74,0 9,-1.02 12.79,-3.05l0,-20.82l0,0.02z" id="svg_7"/>
  <path class="cls-2" d="m329.32,15.11l0,71.09l-16.45,0l0,-29.15l-32.29,0l0,29.15l-16.45,0l0,-71.09l16.45,0l0,28.03l32.29,0l0,-28.03l16.45,0z" id="svg_8"/>
  <path class="cls-2" d="m358.51,28.51l-22.75,0l0,-13.4l61.95,0l0,13.4l-22.75,0l0,57.69l-16.45,0l0,-57.69z" id="svg_9"/>
  <rect class="cls-1" height="14.37" id="svg_10" width="17.14" x="396.33" y="72.41"/>
  <rect class="cls-1" height="13.2" id="svg_11" width="55.98" x="485.62" y="15.11"/>
  <rect class="cls-1" height="13.2" id="svg_12" width="55.98" x="485.62" y="73"/>
  <rect class="cls-1" height="13.2" id="svg_13" width="34.64" x="485.62" y="44.05"/>
 </g>
</svg>