<svg width="19" height="19" viewBox="0 0 19 19" fill="none" xmlns="http://www.w3.org/2000/svg">
<g id="eye-svgrepo-com 2">
<path id="Vector" fill-rule="evenodd" clip-rule="evenodd" d="M9.5 6.53125C7.8604 6.53125 6.53125 7.8604 6.53125 9.5C6.53125 11.1396 7.8604 12.4688 9.5 12.4688C11.1396 12.4688 12.4688 11.1396 12.4688 9.5C12.4688 7.8604 11.1396 6.53125 9.5 6.53125ZM7.71875 9.5C7.71875 8.51628 8.51628 7.71875 9.5 7.71875C10.4837 7.71875 11.2812 8.51628 11.2812 9.5C11.2812 10.4837 10.4837 11.2812 9.5 11.2812C8.51628 11.2812 7.71875 10.4837 7.71875 9.5Z" fill="#8F9399"/>
<path id="Vector_2" fill-rule="evenodd" clip-rule="evenodd" d="M9.50004 2.573C5.92635 2.573 3.51923 4.71382 2.12216 6.52885L2.09696 6.56157C1.78101 6.97192 1.49 7.34985 1.29259 7.79673C1.08117 8.27529 0.989624 8.79684 0.989624 9.50008C0.989624 10.2033 1.08117 10.7249 1.29259 11.2034C1.49 11.6503 1.78101 12.0283 2.09697 12.4386L2.12216 12.4713C3.51923 14.2863 5.92635 16.4272 9.50004 16.4272C13.0737 16.4272 15.4808 14.2863 16.8779 12.4713L16.9031 12.4386C17.2191 12.0283 17.51 11.6503 17.7075 11.2034C17.9189 10.7249 18.0105 10.2033 18.0105 9.50008C18.0105 8.79684 17.9189 8.27529 17.7075 7.79673C17.51 7.34984 17.2191 6.97191 16.9031 6.56156L16.8779 6.52885C15.4808 4.71382 13.0737 2.573 9.50004 2.573ZM3.06317 7.25317C4.35313 5.57731 6.45241 3.7605 9.50004 3.7605C12.5476 3.7605 14.647 5.57731 15.9369 7.25317C16.2841 7.70426 16.4875 7.97383 16.6212 8.27656C16.7463 8.55958 16.823 8.90546 16.823 9.50008C16.823 10.0947 16.7463 10.4406 16.6212 10.7236C16.4875 11.0263 16.2841 11.2959 15.9369 11.747C14.647 13.4229 12.5476 15.2397 9.50004 15.2397C6.45241 15.2397 4.35313 13.4229 3.06317 11.747C2.71596 11.2959 2.51258 11.0263 2.37881 10.7236C2.25379 10.4406 2.17712 10.0947 2.17712 9.50008C2.17712 8.90546 2.25379 8.55958 2.37881 8.27656C2.51258 7.97383 2.71596 7.70426 3.06317 7.25317Z" fill="#8F9399"/>
</g>
</svg>
