<svg width="19" height="19" viewBox="0 0 19 19" fill="none" xmlns="http://www.w3.org/2000/svg">
<g id="eye-closed-svgrepo-com 2">
<path id="Vector" d="M2.12903 5.30777C1.99985 5.00636 1.6508 4.86674 1.34939 4.99591C1.04799 5.12509 0.908364 5.47414 1.03754 5.77555L2.12903 5.30777ZM7.15776 10.8757C7.33661 10.6009 7.25877 10.2331 6.98391 10.0542C6.70906 9.8754 6.34126 9.95322 6.16242 10.2281L7.15776 10.8757ZM5.04394 11.947C4.8651 12.2218 4.94293 12.5896 5.21779 12.7685C5.49265 12.9473 5.86045 12.8695 6.03929 12.5946L5.04394 11.947ZM17.9624 5.77555C18.0915 5.47414 17.9519 5.12509 17.6505 4.99591C17.3491 4.86674 17 5.00636 16.8708 5.30777L17.9624 5.77555ZM15.8093 10.4177C16.0412 10.6496 16.4171 10.6496 16.6489 10.4177C16.8808 10.1858 16.8808 9.80985 16.6489 9.57797L15.8093 10.4177ZM8.9062 13.0625C8.9062 13.3904 9.17204 13.6562 9.49995 13.6562C9.82786 13.6562 10.0937 13.3904 10.0937 13.0625H8.9062ZM12.9606 12.5946C13.1395 12.8695 13.5073 12.9473 13.7821 12.7685C14.0569 12.5896 14.1348 12.2218 13.9559 11.947L12.9606 12.5946ZM4.37813 9.23019C4.61 8.99831 4.61 8.62235 4.37813 8.39047C4.14626 8.15859 3.77031 8.15859 3.53844 8.39047L4.37813 9.23019ZM2.35094 9.57797C2.11907 9.80985 2.11907 10.1858 2.35094 10.4177C2.58281 10.6496 2.95876 10.6496 3.19063 10.4177L2.35094 9.57797ZM9.49995 10.4896C6.9477 10.4896 5.11517 9.21863 3.89859 7.90847C3.29047 7.25358 2.84461 6.59682 2.55117 6.10385C2.40479 5.85793 2.29726 5.65433 2.22723 5.51424C2.19223 5.44425 2.16666 5.39025 2.15033 5.35491C2.14218 5.33725 2.13633 5.32427 2.13279 5.31629C2.13101 5.31231 2.12965 5.3092 2.12903 5.30777C2.12901 5.30774 2.12905 5.30783 2.12903 5.30777C2.12911 5.30795 2.12903 5.30777 1.58328 5.54166C1.03754 5.77555 1.03742 5.77528 1.03754 5.77555C1.03759 5.77567 1.03794 5.77647 1.03804 5.7767C1.03824 5.77717 1.03848 5.77773 1.03876 5.77837C1.03931 5.77965 1.04001 5.78126 1.04086 5.78321C1.04256 5.7871 1.04486 5.79232 1.04775 5.79882C1.05352 5.81181 1.06169 5.82994 1.07229 5.85287C1.09346 5.89872 1.12432 5.96377 1.16509 6.04531C1.24658 6.20829 1.3679 6.43763 1.53076 6.71123C1.85582 7.25733 2.35005 7.98601 3.02839 8.71648C4.38473 10.1772 6.51053 11.6771 9.49995 11.6771V10.4896ZM12.1223 9.99937C11.3541 10.3018 10.483 10.4896 9.49995 10.4896V11.6771C10.6385 11.6771 11.6569 11.4587 12.5573 11.1044L12.1223 9.99937ZM6.16242 10.2281L5.04394 11.947L6.03929 12.5946L7.15776 10.8757L6.16242 10.2281ZM17.4166 5.54166C16.8708 5.30777 16.8708 5.30788 16.8708 5.30777C16.8709 5.30764 16.8712 5.30692 16.8712 5.30701C16.8712 5.30717 16.8709 5.30774 16.8704 5.30872C16.8696 5.31067 16.868 5.31425 16.8657 5.31939C16.8611 5.32967 16.8537 5.34619 16.8433 5.36848C16.8225 5.41307 16.7901 5.48066 16.7458 5.56752C16.6571 5.74137 16.5212 5.99157 16.3363 6.28836C15.9654 6.88366 15.4029 7.65697 14.6353 8.37741L15.448 9.24325C16.3101 8.43401 16.935 7.57297 17.3442 6.91636C17.5493 6.5872 17.7016 6.30704 17.8037 6.10703C17.8546 6.00696 17.8932 5.92675 17.9196 5.87026C17.9327 5.84201 17.9428 5.81968 17.95 5.80373C17.9535 5.79576 17.9564 5.78939 17.9584 5.78467C17.9595 5.78231 17.9603 5.78037 17.961 5.77884C17.9613 5.77808 17.9615 5.77742 17.9618 5.77688C17.9619 5.7766 17.9623 5.77577 17.9624 5.77555C17.9624 5.7756 17.9625 5.77544 17.9624 5.77555C17.9625 5.77541 17.9624 5.77555 17.4166 5.54166ZM14.6353 8.37741C13.9552 9.01565 13.121 9.60631 12.1223 9.99937L12.5573 11.1044C13.7239 10.6452 14.6827 9.96153 15.448 9.24325L14.6353 8.37741ZM14.6218 9.23019L15.8093 10.4177L16.6489 9.57797L15.4614 8.39047L14.6218 9.23019ZM8.9062 11.0833V13.0625H10.0937V11.0833H8.9062ZM11.8422 10.8757L12.9606 12.5946L13.9559 11.947L12.8375 10.2281L11.8422 10.8757ZM3.53844 8.39047L2.35094 9.57797L3.19063 10.4177L4.37813 9.23019L3.53844 8.39047Z" fill="#8F9399"/>
</g>
</svg>
