<svg width="19" height="36" viewBox="0 0 19 36" fill="none" xmlns="http://www.w3.org/2000/svg">
<path d="M9.5 27C14.7467 27 19 22.7467 19 17.5C19 12.2533 14.7467 8 9.5 8C4.25329 8 0 12.2533 0 17.5C0 22.7467 4.25329 27 9.5 27Z" fill="#3F88E9"/>
<path fill-rule="evenodd" clip-rule="evenodd" d="M9.5 18C10.3284 18 11 18.5596 11 19.25V21.75C11 22.4404 10.3284 23 9.5 23C8.67157 23 8 22.4404 8 21.75V19.25C8 18.5596 8.67157 18 9.5 18Z" fill="white"/>
<path d="M9.5 15C10.3284 15 11 14.3284 11 13.5C11 12.6716 10.3284 12 9.5 12C8.67157 12 8 12.6716 8 13.5C8 14.3284 8.67157 15 9.5 15Z" fill="white"/>
</svg>
