<svg width="1440" height="900" viewBox="0 0 1440 900" fill="none" xmlns="http://www.w3.org/2000/svg">
<g opacity="0.08" clip-path="url(#clip0_400_66003)">
<mask id="mask0_400_66003" style="mask-type:luminance" maskUnits="userSpaceOnUse" x="-156" y="-7" width="1677" height="959">
<path d="M1521 -7H-156V951.286H1521V-7Z" fill="white"/>
</mask>
<g mask="url(#mask0_400_66003)">
<g opacity="0.6">
<path d="M1027.55 186.321L1033.87 189.982V197.302L1027.55 200.962L1021.23 197.302V189.982L1027.55 186.321ZM1027.55 185.323L1020.23 189.649V197.967L1027.55 202.293L1034.87 197.967V189.649L1027.55 185.323Z" fill="url(#paint0_linear_400_66003)"/>
</g>
<path d="M877.485 177.337L867.835 172.014L858.519 177.337V188.318L867.835 193.642L877.485 188.318V177.337Z" fill="url(#paint1_linear_400_66003)"/>
<path d="M1080.46 372.321L1075.46 369.659L1070.47 372.321V378.31L1075.46 380.972L1080.46 378.31V372.321Z" fill="url(#paint2_linear_400_66003)"/>
<path d="M528.775 202.625L552.399 216.267V243.552L528.775 257.194L505.151 243.552V216.267L528.775 202.625ZM528.775 199.298L502.489 214.604V244.883L528.775 260.189L555.061 244.883V214.604L528.775 199.298Z" fill="url(#paint3_linear_400_66003)"/>
<path d="M630.26 175.007L642.904 182.328V196.968L630.26 204.288L617.616 196.968V182.328L630.26 175.007ZM630.26 173.344L616.285 181.329V197.634L630.26 205.619L644.235 197.634V181.329L630.26 173.344Z" fill="url(#paint4_linear_400_66003)"/>
<path d="M997.27 251.538L1051.84 283.148V346.035L997.27 377.645L942.701 346.035V283.148L997.27 251.538ZM997.27 243.885L936.047 279.155V349.695L997.27 384.966L1058.49 349.695V279.488L997.27 243.885Z" fill="url(#paint5_linear_400_66003)"/>
<path d="M1414.52 179.333L1418.85 181.995V186.986L1414.52 189.648L1410.2 186.986V181.995L1414.52 179.333ZM1414.52 179L1409.53 181.995V187.651L1414.52 190.646L1419.51 187.651V181.995L1414.52 179Z" fill="url(#paint6_linear_400_66003)"/>
<g opacity="0.3">
<path d="M889.463 176.671L972.315 224.586V320.081L889.463 367.996L806.612 320.081V224.586L889.463 176.671ZM889.463 165.025L796.629 218.596V325.738L889.463 379.309L982.297 325.738V218.596L889.463 165.025Z" fill="url(#paint7_linear_400_66003)"/>
</g>
<g opacity="0.6">
<path d="M730.414 228.579L741.727 235.234V248.21L730.414 254.865L719.101 248.21V235.234L730.414 228.579ZM730.414 228.246L718.769 234.901V248.21L730.414 254.865L742.06 248.21V234.901L730.414 228.246Z" fill="url(#paint8_linear_400_66003)"/>
</g>
<path d="M1200.91 346.035L1212.55 352.69V366.332L1200.91 372.987L1189.26 366.332V352.69L1200.91 346.035ZM1200.91 345.702L1188.93 352.69V366.665L1200.91 373.652L1212.88 366.665V352.69L1200.91 345.702Z" fill="url(#paint9_linear_400_66003)"/>
<path d="M721.763 376.647L729.749 381.306V390.289L721.763 394.948L713.777 390.289V381.306L721.763 376.647ZM721.763 376.314L713.777 380.973V390.289L721.763 394.948L729.749 390.289V380.973L721.763 376.314Z" fill="url(#paint10_linear_400_66003)"/>
<path d="M1165.97 153.38L1230.52 190.647V265.18L1165.97 302.447L1101.42 265.18V190.647L1165.97 153.38ZM1165.97 151.051L1099.75 189.316V265.845L1165.97 304.11L1232.18 265.845V189.316L1165.97 151.051Z" fill="url(#paint11_linear_400_66003)"/>
<path d="M1393.89 164.693L1486.73 218.264V325.738L1393.89 379.309L1301.06 325.738V218.264L1393.89 164.693ZM1393.89 161.698L1298.4 216.933V327.069L1393.89 382.304L1489.39 327.069V216.933L1393.89 161.698Z" fill="url(#paint12_linear_400_66003)"/>
<path d="M494.836 358.346L500.492 361.674V367.996L494.836 371.323L489.179 367.996V361.674L494.836 358.346ZM494.836 358.014L489.179 361.341V367.996L494.836 371.323L500.492 367.996V361.341L494.836 358.014Z" fill="url(#paint13_linear_400_66003)"/>
<path d="M599.648 277.158L670.854 318.085V400.271L599.648 441.531L528.442 400.271V318.085L599.648 277.158ZM599.648 274.829L526.446 317.087V401.602L599.648 443.86L672.851 401.602V317.087L599.648 274.829Z" fill="url(#paint14_linear_400_66003)"/>
<path d="M849.535 300.783L911.424 336.386V407.591L849.535 443.194L787.646 407.591V336.386L849.535 300.783ZM849.535 298.786L785.982 335.387V408.59L849.535 445.191L913.088 408.59V335.387L849.535 298.786Z" fill="url(#paint15_linear_400_66003)"/>
<path d="M1281.1 157.373L1329.01 184.99V240.225L1281.1 267.842L1233.18 240.225V184.99L1281.1 157.373ZM1281.1 156.042L1231.85 184.325V240.89L1281.1 269.173L1330.34 240.89V184.325L1281.1 156.042Z" fill="url(#paint16_linear_400_66003)"/>
<g opacity="0.3">
<path opacity="0.6" d="M1493.05 212.608L1362.28 137.076L1231.85 212.608V363.338L1362.28 438.87L1493.05 363.338V212.608Z" fill="url(#paint17_linear_400_66003)"/>
<path opacity="0.6" d="M1432.49 594.258L1347.98 545.679L1263.79 594.258V691.418L1347.98 740.33L1432.49 691.418V594.258Z" fill="url(#paint18_linear_400_66003)"/>
<g opacity="0.6">
<path d="M995.939 370.992L1025.55 387.962V422.234L995.939 439.203L966.325 422.234V387.962L995.939 370.992ZM995.939 366.999L962.665 386.298V424.563L995.939 443.862L1029.21 424.563V386.298L995.939 366.999Z" fill="url(#paint19_linear_400_66003)"/>
</g>
<g opacity="0.6">
<path d="M1172.29 410.587L1317.03 494.104V661.139L1172.29 744.656L1027.55 661.139V494.104L1172.29 410.587ZM1172.29 390.29L1010.25 483.789V671.121L1172.29 764.62L1334.33 671.121V483.789L1172.29 390.29Z" fill="url(#paint20_linear_400_66003)"/>
</g>
<g opacity="0.6">
<path d="M198.366 379.309L208.016 384.966V395.946L198.366 401.603L188.717 395.946V384.966L198.366 379.309ZM198.366 377.979L187.719 384.301V396.612L198.366 402.934L209.014 396.612V384.301L198.366 377.979Z" fill="url(#paint21_linear_400_66003)"/>
</g>
<path d="M833.23 427.889L745.388 377.312L657.212 427.889V529.707L745.388 580.615L833.23 529.707V427.889Z" fill="url(#paint22_linear_400_66003)"/>
<path d="M277.225 657.811L269.905 653.485L262.252 657.811V666.129L269.905 670.455L277.225 666.129V657.811Z" fill="url(#paint23_linear_400_66003)"/>
<path d="M152.781 477.134L234.302 524.383V618.548L152.781 665.797L71.26 618.548V524.383L152.781 477.134ZM152.781 465.821L61.2778 518.727V624.205L152.781 677.11L244.284 624.205V518.727L152.781 465.821Z" fill="url(#paint24_linear_400_66003)"/>
<path d="M1223.2 362.34L1241.83 372.987V394.615L1223.2 405.263L1204.57 394.615V372.987L1223.2 362.34ZM1223.2 359.678L1202.24 371.656V395.613L1223.2 407.592L1244.16 395.613V371.656L1223.2 359.678Z" fill="url(#paint25_linear_400_66003)"/>
<path d="M776.332 369.327L782.987 373.32V380.973L776.332 384.966L769.677 380.973V373.32L776.332 369.327ZM776.332 368.329L769.012 372.655V381.306L776.332 385.631L783.652 381.306V372.655L776.332 368.329Z" fill="url(#paint26_linear_400_66003)"/>
<g opacity="0.3">
<path d="M-8.26433 365.002L115.514 436.54V579.285L-8.26433 650.824L-132.043 579.618V436.873L-8.26433 365.002ZM-8.26433 347.699L-147.016 427.889V588.269L-8.26433 668.459L130.487 588.269V427.889L-8.26433 347.699Z" fill="url(#paint27_linear_400_66003)"/>
</g>
<path d="M457.236 618.215L474.872 628.197V648.494L457.236 658.477L439.601 648.494V628.197L457.236 618.215ZM457.236 617.55L439.269 627.865V648.827L457.236 659.142L475.204 648.827V627.865L457.236 617.55Z" fill="url(#paint28_linear_400_66003)"/>
<path d="M405.329 330.065L501.823 385.632V497.099L405.329 552.667L308.835 497.099V385.632L405.329 330.065ZM405.329 327.07L306.173 384.301V498.763L405.329 555.994L504.485 498.763V384.301L405.329 327.07Z" fill="url(#paint29_linear_400_66003)"/>
<path d="M745.72 347.035L884.472 427.224V587.604L745.72 667.794L606.968 587.604V427.224L745.72 347.035ZM745.72 342.709L602.976 425.228V589.933L745.72 672.452L888.465 589.933V425.228L745.72 342.709Z" fill="url(#paint30_linear_400_66003)"/>
<path d="M-67.8244 550.337L24.344 603.575V710.052L-67.8244 763.29L-160.326 710.052V603.575L-67.8244 550.337ZM-67.8244 547.343L-162.655 602.245V711.715L-67.8244 766.617L27.0059 711.715V602.245L-67.8244 547.343Z" fill="url(#paint31_linear_400_66003)"/>
<path d="M577.022 336.386L648.561 377.645V460.164L577.022 501.424L505.483 460.164V377.645L577.022 336.386ZM577.022 334.057L503.487 376.314V461.163L577.022 503.42L650.224 461.163V376.314L577.022 334.057Z" fill="url(#paint32_linear_400_66003)"/>
<g opacity="0.3">
<path d="M1417.85 417.242L1426.5 422.233V432.215L1417.85 437.206L1409.2 432.215V422.233L1417.85 417.242ZM1417.85 416.909L1408.87 422.233V432.548L1417.85 437.872L1426.84 432.548V422.233L1417.85 416.909Z" fill="url(#paint33_linear_400_66003)"/>
</g>
</g>
<path d="M1088.77 33.9271L1127.7 56.5532V101.473L1088.77 124.099L1049.84 101.473V56.2205L1088.77 33.9271ZM1088.77 28.2705L1045.18 53.5586V104.135L1089.11 129.423L1133.03 104.135V53.5586L1088.77 28.2705Z" fill="url(#paint34_linear_400_66003)"/>
<path d="M1257.47 -12.3237L1278.43 -0.345145V23.612L1257.47 35.5906L1236.51 23.612V-0.345145L1257.47 -12.3237ZM1257.47 -15.3184L1234.18 -1.6761V25.2757L1257.47 38.9179L1280.76 25.2757V-1.6761L1257.47 -15.3184Z" fill="url(#paint35_linear_400_66003)"/>
<g opacity="0.6">
<path d="M1423.51 76.8503L1442.14 87.8307V109.459L1423.51 120.439L1404.87 109.459V87.8307L1423.51 76.8503ZM1423.51 76.5176L1404.21 87.4979V109.791L1423.51 120.772L1442.81 109.791V87.4979L1423.51 76.5176Z" fill="url(#paint36_linear_400_66003)"/>
</g>
<path d="M1409.53 322.744L1422.51 330.397V345.37L1409.53 353.023L1396.56 345.37V330.397L1409.53 322.744ZM1409.53 322.411L1396.22 330.064V345.703L1409.53 353.356L1422.84 345.703V330.064L1409.53 322.411Z" fill="url(#paint37_linear_400_66003)"/>
<path d="M1032.21 292.132L1041.52 297.455V308.103L1032.21 313.427L1022.89 308.103V297.455L1032.21 292.132ZM1032.21 291.799L1022.56 297.455V308.436L1032.21 314.092L1041.86 308.436V297.455L1032.21 291.799Z" fill="url(#paint38_linear_400_66003)"/>
<path d="M1206.56 157.373L1325.02 225.584V362.007L1206.56 430.218L1088.44 362.34V225.917L1206.56 157.373ZM1206.56 153.713L1085.11 223.921V364.336L1206.56 434.544L1328.01 364.336V223.921L1206.56 153.713Z" fill="url(#paint39_linear_400_66003)"/>
<g opacity="0.3">
<g opacity="0.6">
<path d="M539.423 327.402L555.394 336.719V355.352L539.423 364.669L523.451 355.352V336.719L539.423 327.402ZM539.423 325.073L521.455 335.388V356.018L539.423 366.333L557.391 356.018V335.388L539.423 325.073Z" fill="url(#paint40_linear_400_66003)"/>
</g>
<path d="M166.09 305.441L142.799 292.132L119.507 305.441V332.393L142.799 345.703L166.09 332.393V305.441Z" fill="url(#paint41_linear_400_66003)"/>
<path d="M1464.43 269.506L1318.36 184.99L1171.96 269.506V438.204L1318.36 522.719L1464.43 438.204V269.506Z" fill="url(#paint42_linear_400_66003)"/>
<path d="M658.21 568.305L645.566 561.317L633.255 568.305V582.613L645.566 589.6L658.21 582.613V568.305Z" fill="url(#paint43_linear_400_66003)"/>
<path d="M463.891 489.778L599.316 567.971V724.358L463.891 802.551L328.467 724.358V567.971L463.891 489.778ZM463.891 470.812L311.83 558.654V734.34L463.891 822.183L615.952 734.34V558.654L463.891 470.812Z" fill="url(#paint44_linear_400_66003)"/>
<g opacity="0.3">
<path d="M196.037 303.777L401.669 422.565V660.14L196.037 778.927L-9.59518 659.807V422.232L196.037 303.777ZM196.037 274.829L-34.5505 407.924V674.115L196.037 807.21L426.624 674.115V407.924L196.037 274.829Z" fill="url(#paint45_linear_400_66003)"/>
</g>
<path d="M969.986 724.359L999.267 741.328V774.935L969.986 791.904L940.705 774.935V741.328L969.986 724.359ZM969.986 723.36L940.039 740.663V775.268L969.986 792.57L999.932 775.268V740.663L969.986 723.36Z" fill="url(#paint46_linear_400_66003)"/>
<path d="M883.141 245.216L1043.52 337.717V522.719L883.141 615.22L722.761 522.719V337.717L883.141 245.216ZM883.141 240.225L718.436 335.388V525.381L883.141 620.544L1047.85 525.381V335.055L883.141 240.225Z" fill="url(#paint47_linear_400_66003)"/>
<path d="M1449.46 266.511L1646.44 380.307V387.627L1449.46 273.831L1218.54 406.926V673.449L1449.46 806.545L1646.44 692.748V700.401L1449.46 814.198L1212.22 677.11V403.266L1449.46 266.511Z" fill="url(#paint48_linear_400_66003)"/>
<path d="M103.868 587.603L257.261 676.112V853.461L103.868 941.969L-49.5238 853.461V676.112L103.868 587.603ZM103.868 582.612L-53.8494 673.783V855.79L103.868 946.961L261.586 855.79V673.783L103.868 582.612Z" fill="url(#paint49_linear_400_66003)"/>
<path d="M1168.96 255.864L1287.42 324.408V461.496L1168.96 530.04L1050.18 461.496V324.408L1168.96 255.864ZM1168.96 251.871L1047.18 322.412V463.16L1168.96 533.7L1290.75 463.16V322.412L1168.96 251.871Z" fill="url(#paint50_linear_400_66003)"/>
</g>
<path d="M1203.57 755.304L1109.74 701.067V592.927L1203.57 538.691L1297.4 592.927V701.067L1203.57 755.304ZM1203.57 759.629L1301.06 703.396V590.931L1203.57 534.698L1106.08 590.931V703.396L1203.57 759.629Z" fill="url(#paint51_linear_400_66003)"/>
<g opacity="0.6">
<path d="M1254.14 426.89L1283.76 443.86V478.132L1254.14 495.102L1224.53 478.132V443.86L1254.14 426.89ZM1254.14 422.897L1220.87 442.196V480.461L1254.14 499.76L1287.42 480.461V442.196L1254.14 422.897Z" fill="url(#paint52_linear_400_66003)"/>
</g>
<g opacity="0.3">
<path d="M1430.5 466.486L1575.24 550.004V717.038L1430.5 800.556L1285.75 717.038V550.004L1430.5 466.486ZM1430.5 446.189L1268.12 539.689V727.02L1430.16 820.52L1592.21 727.02V539.689L1430.5 446.189Z" fill="url(#paint53_linear_400_66003)"/>
</g>
<g opacity="0.6">
<path d="M456.238 435.209L465.887 440.865V451.846L456.238 457.502L446.589 451.846V440.865L456.238 435.209ZM456.238 433.878L445.59 440.2V452.511L456.238 458.833L466.886 452.511V440.2L456.238 433.878Z" fill="url(#paint54_linear_400_66003)"/>
</g>
<path d="M231.64 422.233L217.665 413.914L203.69 422.233V438.204L217.665 446.19L231.64 438.204V422.233Z" fill="url(#paint55_linear_400_66003)"/>
<path opacity="0.5" d="M1520.67 179.999L1432.49 129.09L1344.65 179.999V281.817L1432.49 332.726L1520.67 281.817V179.999Z" fill="url(#paint56_linear_400_66003)"/>
<path d="M535.43 713.711L527.777 709.386L520.457 713.711V722.03L527.777 726.355L535.43 722.03V713.711Z" fill="url(#paint57_linear_400_66003)"/>
<g opacity="0.4">
<path d="M410.986 533.034L492.506 580.283V674.448L410.986 721.696L329.465 674.448V580.283L410.986 533.034ZM410.986 521.721L319.483 574.626V680.104L410.986 733.009L502.489 680.104V574.626L410.986 521.721Z" fill="url(#paint58_linear_400_66003)"/>
</g>
<path d="M1034.54 425.228L1041.19 429.221V436.873L1034.54 440.866L1027.88 436.873V428.888L1034.54 425.228ZM1034.54 424.229L1027.22 428.555V437.206L1034.54 441.532L1041.86 437.206V428.555L1034.54 424.229Z" fill="url(#paint59_linear_400_66003)"/>
<g opacity="0.3">
<path d="M249.608 420.901L373.386 492.44V635.184L249.608 706.723L125.829 635.184V492.44L249.608 420.901ZM249.608 403.599L110.856 483.789V644.168L249.608 724.358L388.36 644.168V483.789L249.608 403.599Z" fill="url(#paint60_linear_400_66003)"/>
</g>
<g opacity="0.6">
<path d="M12.0326 498.762L29.0022 508.412V527.71L12.0326 537.36L-4.93703 527.71V508.412L12.0326 498.762ZM12.0326 498.097L-5.26978 508.079V528.043L12.0326 538.025L29.335 528.043V508.079L12.0326 498.097Z" fill="url(#paint61_linear_400_66003)"/>
</g>
<path d="M715.441 674.115L733.076 684.097V704.394L715.441 714.376L697.806 704.394V684.097L715.441 674.115ZM715.441 673.449L697.473 683.764V704.727L715.441 715.041L733.409 704.727V683.764L715.441 673.449Z" fill="url(#paint62_linear_400_66003)"/>
<path d="M-0.611509 719.7L11.0343 726.355V739.997L-0.611509 746.652L-12.2573 739.997V726.355L-0.611509 719.7ZM-0.611509 719.367L-12.5901 726.355V740.33L-0.611509 747.317L11.3671 740.33V726.355L-0.611509 719.367Z" fill="url(#paint63_linear_400_66003)"/>
<path d="M663.201 385.963L759.695 441.531V552.998L663.201 608.565L566.707 552.998V441.531L663.201 385.963ZM663.201 382.969L564.045 440.2V554.662L663.201 611.893L762.357 554.662V440.2L663.201 382.969Z" fill="url(#paint64_linear_400_66003)"/>
<path d="M1003.92 402.933L1142.68 483.123V643.503L1003.92 723.693L865.173 643.503V483.123L1003.92 402.933ZM1003.92 398.607L861.18 481.126V645.832L1003.92 728.351L1146.67 645.832V481.126L1003.92 398.607Z" fill="url(#paint65_linear_400_66003)"/>
<path d="M190.38 606.236L282.549 659.474V765.95L190.38 819.188L97.879 765.95V659.474L190.38 606.236ZM190.38 603.241L95.5498 658.143V767.614L190.38 822.516L285.211 767.614V658.143L190.38 603.241Z" fill="url(#paint66_linear_400_66003)"/>
<path d="M835.227 392.286L906.766 433.546V516.065L835.227 557.324L763.688 516.065V433.546L835.227 392.286ZM835.227 389.957L761.692 432.215V517.063L835.227 559.321L908.429 517.063V432.215L835.227 389.957Z" fill="url(#paint67_linear_400_66003)"/>
</g>
</g>
<defs>
<linearGradient id="paint0_linear_400_66003" x1="1027.65" y1="202.08" x2="1027.65" y2="185.4" gradientUnits="userSpaceOnUse">
<stop stop-color="#0075D9"/>
<stop offset="0.9898" stop-color="#66D7F4"/>
<stop offset="1" stop-color="#67D8F4"/>
</linearGradient>
<linearGradient id="paint1_linear_400_66003" x1="867.968" y1="193.679" x2="867.968" y2="172.057" gradientUnits="userSpaceOnUse">
<stop stop-color="#0075D9"/>
<stop offset="0.9898" stop-color="#66D7F4"/>
<stop offset="1" stop-color="#67D8F4"/>
</linearGradient>
<linearGradient id="paint2_linear_400_66003" x1="1075.47" y1="381.072" x2="1075.47" y2="369.589" gradientUnits="userSpaceOnUse">
<stop stop-color="#0075D9"/>
<stop offset="0.9898" stop-color="#66D7F4"/>
<stop offset="1" stop-color="#67D8F4"/>
</linearGradient>
<linearGradient id="paint3_linear_400_66003" x1="528.893" y1="260.289" x2="528.893" y2="199.437" gradientUnits="userSpaceOnUse">
<stop stop-color="#0075D9"/>
<stop offset="0.9898" stop-color="#66D7F4"/>
<stop offset="1" stop-color="#67D8F4"/>
</linearGradient>
<linearGradient id="paint4_linear_400_66003" x1="630.361" y1="205.753" x2="630.361" y2="173.193" gradientUnits="userSpaceOnUse">
<stop stop-color="#0075D9"/>
<stop offset="0.9898" stop-color="#66D7F4"/>
<stop offset="1" stop-color="#67D8F4"/>
</linearGradient>
<linearGradient id="paint5_linear_400_66003" x1="997.212" y1="385.399" x2="997.212" y2="244.035" gradientUnits="userSpaceOnUse">
<stop stop-color="#0075D9"/>
<stop offset="0.9898" stop-color="#66D7F4"/>
<stop offset="1" stop-color="#67D8F4"/>
</linearGradient>
<linearGradient id="paint6_linear_400_66003" x1="1414.41" y1="190.426" x2="1414.41" y2="178.862" gradientUnits="userSpaceOnUse">
<stop stop-color="#0075D9"/>
<stop offset="0.9898" stop-color="#66D7F4"/>
<stop offset="1" stop-color="#67D8F4"/>
</linearGradient>
<linearGradient id="paint7_linear_400_66003" x1="889.403" y1="379.556" x2="889.403" y2="165.128" gradientUnits="userSpaceOnUse">
<stop stop-color="#0075D9"/>
<stop offset="0.9898" stop-color="#66D7F4"/>
<stop offset="1" stop-color="#67D8F4"/>
</linearGradient>
<linearGradient id="paint8_linear_400_66003" x1="730.304" y1="255.111" x2="730.304" y2="228.344" gradientUnits="userSpaceOnUse">
<stop stop-color="#0075D9"/>
<stop offset="0.9898" stop-color="#66D7F4"/>
<stop offset="1" stop-color="#67D8F4"/>
</linearGradient>
<linearGradient id="paint9_linear_400_66003" x1="1200.95" y1="373.602" x2="1200.95" y2="345.697" gradientUnits="userSpaceOnUse">
<stop stop-color="#0075D9"/>
<stop offset="0.9898" stop-color="#66D7F4"/>
<stop offset="1" stop-color="#67D8F4"/>
</linearGradient>
<linearGradient id="paint10_linear_400_66003" x1="721.925" y1="395.052" x2="721.925" y2="376.375" gradientUnits="userSpaceOnUse">
<stop stop-color="#0075D9"/>
<stop offset="0.9898" stop-color="#66D7F4"/>
<stop offset="1" stop-color="#67D8F4"/>
</linearGradient>
<linearGradient id="paint11_linear_400_66003" x1="1166.07" y1="304.319" x2="1166.07" y2="151.184" gradientUnits="userSpaceOnUse">
<stop stop-color="#0075D9"/>
<stop offset="0.9898" stop-color="#66D7F4"/>
<stop offset="1" stop-color="#67D8F4"/>
</linearGradient>
<linearGradient id="paint12_linear_400_66003" x1="1394.02" y1="382.238" x2="1394.02" y2="161.758" gradientUnits="userSpaceOnUse">
<stop stop-color="#0075D9"/>
<stop offset="0.9898" stop-color="#66D7F4"/>
<stop offset="1" stop-color="#67D8F4"/>
</linearGradient>
<linearGradient id="paint13_linear_400_66003" x1="494.824" y1="371.373" x2="494.824" y2="358.057" gradientUnits="userSpaceOnUse">
<stop stop-color="#0075D9"/>
<stop offset="0.9898" stop-color="#66D7F4"/>
<stop offset="1" stop-color="#67D8F4"/>
</linearGradient>
<linearGradient id="paint14_linear_400_66003" x1="599.743" y1="443.788" x2="599.743" y2="274.837" gradientUnits="userSpaceOnUse">
<stop stop-color="#0075D9"/>
<stop offset="0.9898" stop-color="#66D7F4"/>
<stop offset="1" stop-color="#67D8F4"/>
</linearGradient>
<linearGradient id="paint15_linear_400_66003" x1="849.644" y1="445.375" x2="849.644" y2="298.692" gradientUnits="userSpaceOnUse">
<stop stop-color="#0075D9"/>
<stop offset="0.9898" stop-color="#66D7F4"/>
<stop offset="1" stop-color="#67D8F4"/>
</linearGradient>
<linearGradient id="paint16_linear_400_66003" x1="1281.13" y1="269.308" x2="1281.13" y2="155.931" gradientUnits="userSpaceOnUse">
<stop stop-color="#0075D9"/>
<stop offset="0.9898" stop-color="#66D7F4"/>
<stop offset="1" stop-color="#67D8F4"/>
</linearGradient>
<linearGradient id="paint17_linear_400_66003" x1="1362.38" y1="438.754" x2="1362.38" y2="137.095" gradientUnits="userSpaceOnUse">
<stop stop-color="#0075D9"/>
<stop offset="0.9898" stop-color="#66D7F4"/>
<stop offset="1" stop-color="#67D8F4"/>
</linearGradient>
<linearGradient id="paint18_linear_400_66003" x1="1348.06" y1="740.175" x2="1348.06" y2="545.547" gradientUnits="userSpaceOnUse">
<stop stop-color="#0075D9"/>
<stop offset="0.9898" stop-color="#66D7F4"/>
<stop offset="1" stop-color="#67D8F4"/>
</linearGradient>
<linearGradient id="paint19_linear_400_66003" x1="995.963" y1="443.535" x2="995.963" y2="366.947" gradientUnits="userSpaceOnUse">
<stop stop-color="#0075D9"/>
<stop offset="0.9898" stop-color="#66D7F4"/>
<stop offset="1" stop-color="#67D8F4"/>
</linearGradient>
<linearGradient id="paint20_linear_400_66003" x1="1172.29" y1="764.713" x2="1172.29" y2="390.215" gradientUnits="userSpaceOnUse">
<stop stop-color="#0075D9"/>
<stop offset="0.9898" stop-color="#66D7F4"/>
<stop offset="1" stop-color="#67D8F4"/>
</linearGradient>
<linearGradient id="paint21_linear_400_66003" x1="198.275" y1="402.999" x2="198.275" y2="378.07" gradientUnits="userSpaceOnUse">
<stop stop-color="#0075D9"/>
<stop offset="0.9898" stop-color="#66D7F4"/>
<stop offset="1" stop-color="#67D8F4"/>
</linearGradient>
<linearGradient id="paint22_linear_400_66003" x1="745.262" y1="580.532" x2="745.262" y2="377.191" gradientUnits="userSpaceOnUse">
<stop stop-color="#0075D9"/>
<stop offset="0.9898" stop-color="#66D7F4"/>
<stop offset="1" stop-color="#67D8F4"/>
</linearGradient>
<linearGradient id="paint23_linear_400_66003" x1="269.745" y1="670.523" x2="269.745" y2="653.36" gradientUnits="userSpaceOnUse">
<stop stop-color="#0075D9"/>
<stop offset="0.9898" stop-color="#66D7F4"/>
<stop offset="1" stop-color="#67D8F4"/>
</linearGradient>
<linearGradient id="paint24_linear_400_66003" x1="152.777" y1="676.988" x2="152.777" y2="465.705" gradientUnits="userSpaceOnUse">
<stop stop-color="#0075D9"/>
<stop offset="0.9898" stop-color="#66D7F4"/>
<stop offset="1" stop-color="#67D8F4"/>
</linearGradient>
<linearGradient id="paint25_linear_400_66003" x1="1223.14" y1="407.775" x2="1223.14" y2="359.619" gradientUnits="userSpaceOnUse">
<stop stop-color="#0075D9"/>
<stop offset="0.9898" stop-color="#66D7F4"/>
<stop offset="1" stop-color="#67D8F4"/>
</linearGradient>
<linearGradient id="paint26_linear_400_66003" x1="776.322" y1="385.584" x2="776.322" y2="368.3" gradientUnits="userSpaceOnUse">
<stop stop-color="#0075D9"/>
<stop offset="0.9898" stop-color="#66D7F4"/>
<stop offset="1" stop-color="#67D8F4"/>
</linearGradient>
<linearGradient id="paint27_linear_400_66003" x1="-8.35384" y1="668.257" x2="-8.35384" y2="347.771" gradientUnits="userSpaceOnUse">
<stop stop-color="#0075D9"/>
<stop offset="0.9898" stop-color="#66D7F4"/>
<stop offset="1" stop-color="#67D8F4"/>
</linearGradient>
<linearGradient id="paint28_linear_400_66003" x1="457.284" y1="659.358" x2="457.284" y2="617.652" gradientUnits="userSpaceOnUse">
<stop stop-color="#0075D9"/>
<stop offset="0.9898" stop-color="#66D7F4"/>
<stop offset="1" stop-color="#67D8F4"/>
</linearGradient>
<linearGradient id="paint29_linear_400_66003" x1="405.161" y1="555.807" x2="405.161" y2="326.933" gradientUnits="userSpaceOnUse">
<stop stop-color="#0075D9"/>
<stop offset="0.9898" stop-color="#66D7F4"/>
<stop offset="1" stop-color="#67D8F4"/>
</linearGradient>
<linearGradient id="paint30_linear_400_66003" x1="745.849" y1="672.266" x2="745.849" y2="342.735" gradientUnits="userSpaceOnUse">
<stop stop-color="#0075D9"/>
<stop offset="0.9898" stop-color="#66D7F4"/>
<stop offset="1" stop-color="#67D8F4"/>
</linearGradient>
<linearGradient id="paint31_linear_400_66003" x1="-67.7772" y1="766.631" x2="-67.7772" y2="547.398" gradientUnits="userSpaceOnUse">
<stop stop-color="#0075D9"/>
<stop offset="0.9898" stop-color="#66D7F4"/>
<stop offset="1" stop-color="#67D8F4"/>
</linearGradient>
<linearGradient id="paint32_linear_400_66003" x1="577.121" y1="503.479" x2="577.121" y2="334.026" gradientUnits="userSpaceOnUse">
<stop stop-color="#0075D9"/>
<stop offset="0.9898" stop-color="#66D7F4"/>
<stop offset="1" stop-color="#67D8F4"/>
</linearGradient>
<linearGradient id="paint33_linear_400_66003" x1="1417.81" y1="437.649" x2="1417.81" y2="416.925" gradientUnits="userSpaceOnUse">
<stop stop-color="#0075D9"/>
<stop offset="0.9898" stop-color="#66D7F4"/>
<stop offset="1" stop-color="#67D8F4"/>
</linearGradient>
<linearGradient id="paint34_linear_400_66003" x1="1088.86" y1="129.458" x2="1088.86" y2="28.338" gradientUnits="userSpaceOnUse">
<stop stop-color="#0075D9"/>
<stop offset="0.9898" stop-color="#66D7F4"/>
<stop offset="1" stop-color="#67D8F4"/>
</linearGradient>
<linearGradient id="paint35_linear_400_66003" x1="1257.47" y1="38.8351" x2="1257.47" y2="-15.2724" gradientUnits="userSpaceOnUse">
<stop stop-color="#0075D9"/>
<stop offset="0.9898" stop-color="#66D7F4"/>
<stop offset="1" stop-color="#67D8F4"/>
</linearGradient>
<linearGradient id="paint36_linear_400_66003" x1="1423.55" y1="120.853" x2="1423.55" y2="76.3738" gradientUnits="userSpaceOnUse">
<stop stop-color="#0075D9"/>
<stop offset="0.9898" stop-color="#66D7F4"/>
<stop offset="1" stop-color="#67D8F4"/>
</linearGradient>
<linearGradient id="paint37_linear_400_66003" x1="1409.63" y1="353.395" x2="1409.63" y2="322.36" gradientUnits="userSpaceOnUse">
<stop stop-color="#0075D9"/>
<stop offset="0.9898" stop-color="#66D7F4"/>
<stop offset="1" stop-color="#67D8F4"/>
</linearGradient>
<linearGradient id="paint38_linear_400_66003" x1="1032.25" y1="314.047" x2="1032.25" y2="291.92" gradientUnits="userSpaceOnUse">
<stop stop-color="#0075D9"/>
<stop offset="0.9898" stop-color="#66D7F4"/>
<stop offset="1" stop-color="#67D8F4"/>
</linearGradient>
<linearGradient id="paint39_linear_400_66003" x1="1206.6" y1="434.382" x2="1206.6" y2="153.632" gradientUnits="userSpaceOnUse">
<stop stop-color="#0075D9"/>
<stop offset="0.9898" stop-color="#66D7F4"/>
<stop offset="1" stop-color="#67D8F4"/>
</linearGradient>
<linearGradient id="paint40_linear_400_66003" x1="539.47" y1="366.601" x2="539.47" y2="325.175" gradientUnits="userSpaceOnUse">
<stop stop-color="#0075D9"/>
<stop offset="0.9898" stop-color="#66D7F4"/>
<stop offset="1" stop-color="#67D8F4"/>
</linearGradient>
<linearGradient id="paint41_linear_400_66003" x1="142.875" y1="345.735" x2="142.875" y2="292.038" gradientUnits="userSpaceOnUse">
<stop stop-color="#0075D9"/>
<stop offset="0.9898" stop-color="#66D7F4"/>
<stop offset="1" stop-color="#67D8F4"/>
</linearGradient>
<linearGradient id="paint42_linear_400_66003" x1="1318.18" y1="522.771" x2="1318.18" y2="184.874" gradientUnits="userSpaceOnUse">
<stop stop-color="#0075D9"/>
<stop offset="0.9898" stop-color="#66D7F4"/>
<stop offset="1" stop-color="#67D8F4"/>
</linearGradient>
<linearGradient id="paint43_linear_400_66003" x1="645.712" y1="589.702" x2="645.712" y2="561.183" gradientUnits="userSpaceOnUse">
<stop stop-color="#0075D9"/>
<stop offset="0.9898" stop-color="#66D7F4"/>
<stop offset="1" stop-color="#67D8F4"/>
</linearGradient>
<linearGradient id="paint44_linear_400_66003" x1="463.866" y1="821.892" x2="463.866" y2="470.8" gradientUnits="userSpaceOnUse">
<stop stop-color="#0075D9"/>
<stop offset="0.9898" stop-color="#66D7F4"/>
<stop offset="1" stop-color="#67D8F4"/>
</linearGradient>
<linearGradient id="paint45_linear_400_66003" x1="196.111" y1="807.384" x2="196.111" y2="274.827" gradientUnits="userSpaceOnUse">
<stop stop-color="#0075D9"/>
<stop offset="0.9898" stop-color="#66D7F4"/>
<stop offset="1" stop-color="#67D8F4"/>
</linearGradient>
<linearGradient id="paint46_linear_400_66003" x1="969.87" y1="792.598" x2="969.87" y2="723.293" gradientUnits="userSpaceOnUse">
<stop stop-color="#0075D9"/>
<stop offset="0.9898" stop-color="#66D7F4"/>
<stop offset="1" stop-color="#67D8F4"/>
</linearGradient>
<linearGradient id="paint47_linear_400_66003" x1="883.256" y1="620.524" x2="883.256" y2="240.198" gradientUnits="userSpaceOnUse">
<stop stop-color="#0075D9"/>
<stop offset="0.9898" stop-color="#66D7F4"/>
<stop offset="1" stop-color="#67D8F4"/>
</linearGradient>
<linearGradient id="paint48_linear_400_66003" x1="1429.32" y1="814.046" x2="1429.32" y2="266.457" gradientUnits="userSpaceOnUse">
<stop stop-color="#0075D9"/>
<stop offset="0.9898" stop-color="#66D7F4"/>
<stop offset="1" stop-color="#67D8F4"/>
</linearGradient>
<linearGradient id="paint49_linear_400_66003" x1="103.968" y1="946.96" x2="103.968" y2="582.655" gradientUnits="userSpaceOnUse">
<stop stop-color="#0075D9"/>
<stop offset="0.9898" stop-color="#66D7F4"/>
<stop offset="1" stop-color="#67D8F4"/>
</linearGradient>
<linearGradient id="paint50_linear_400_66003" x1="1169.01" y1="533.571" x2="1169.01" y2="251.988" gradientUnits="userSpaceOnUse">
<stop stop-color="#0075D9"/>
<stop offset="0.9898" stop-color="#66D7F4"/>
<stop offset="1" stop-color="#67D8F4"/>
</linearGradient>
<linearGradient id="paint51_linear_400_66003" x1="1203.58" y1="759.577" x2="1203.58" y2="534.437" gradientUnits="userSpaceOnUse">
<stop stop-color="#0075D9"/>
<stop offset="0.9898" stop-color="#66D7F4"/>
<stop offset="1" stop-color="#67D8F4"/>
</linearGradient>
<linearGradient id="paint52_linear_400_66003" x1="1254.06" y1="499.439" x2="1254.06" y2="422.851" gradientUnits="userSpaceOnUse">
<stop stop-color="#0075D9"/>
<stop offset="0.9898" stop-color="#66D7F4"/>
<stop offset="1" stop-color="#67D8F4"/>
</linearGradient>
<linearGradient id="paint53_linear_400_66003" x1="1430.38" y1="820.617" x2="1430.38" y2="446.12" gradientUnits="userSpaceOnUse">
<stop stop-color="#0075D9"/>
<stop offset="0.9898" stop-color="#66D7F4"/>
<stop offset="1" stop-color="#67D8F4"/>
</linearGradient>
<linearGradient id="paint54_linear_400_66003" x1="456.37" y1="458.904" x2="456.37" y2="433.975" gradientUnits="userSpaceOnUse">
<stop stop-color="#0075D9"/>
<stop offset="0.9898" stop-color="#66D7F4"/>
<stop offset="1" stop-color="#67D8F4"/>
</linearGradient>
<linearGradient id="paint55_linear_400_66003" x1="217.705" y1="446.348" x2="217.705" y2="414.034" gradientUnits="userSpaceOnUse">
<stop stop-color="#0075D9"/>
<stop offset="0.9898" stop-color="#66D7F4"/>
<stop offset="1" stop-color="#67D8F4"/>
</linearGradient>
<linearGradient id="paint56_linear_400_66003" x1="1432.54" y1="332.592" x2="1432.54" y2="129.251" gradientUnits="userSpaceOnUse">
<stop stop-color="#0075D9"/>
<stop offset="0.9898" stop-color="#66D7F4"/>
<stop offset="1" stop-color="#67D8F4"/>
</linearGradient>
<linearGradient id="paint57_linear_400_66003" x1="527.84" y1="726.429" x2="527.84" y2="709.266" gradientUnits="userSpaceOnUse">
<stop stop-color="#0075D9"/>
<stop offset="0.9898" stop-color="#66D7F4"/>
<stop offset="1" stop-color="#67D8F4"/>
</linearGradient>
<linearGradient id="paint58_linear_400_66003" x1="410.872" y1="732.893" x2="410.872" y2="521.61" gradientUnits="userSpaceOnUse">
<stop stop-color="#0075D9"/>
<stop offset="0.9898" stop-color="#66D7F4"/>
<stop offset="1" stop-color="#67D8F4"/>
</linearGradient>
<linearGradient id="paint59_linear_400_66003" x1="1034.42" y1="441.489" x2="1034.42" y2="424.206" gradientUnits="userSpaceOnUse">
<stop stop-color="#0075D9"/>
<stop offset="0.9898" stop-color="#66D7F4"/>
<stop offset="1" stop-color="#67D8F4"/>
</linearGradient>
<linearGradient id="paint60_linear_400_66003" x1="249.741" y1="724.162" x2="249.741" y2="403.676" gradientUnits="userSpaceOnUse">
<stop stop-color="#0075D9"/>
<stop offset="0.9898" stop-color="#66D7F4"/>
<stop offset="1" stop-color="#67D8F4"/>
</linearGradient>
<linearGradient id="paint61_linear_400_66003" x1="11.9508" y1="538.166" x2="11.9508" y2="498.16" gradientUnits="userSpaceOnUse">
<stop stop-color="#0075D9"/>
<stop offset="0.9898" stop-color="#66D7F4"/>
<stop offset="1" stop-color="#67D8F4"/>
</linearGradient>
<linearGradient id="paint62_linear_400_66003" x1="715.379" y1="715.263" x2="715.379" y2="673.557" gradientUnits="userSpaceOnUse">
<stop stop-color="#0075D9"/>
<stop offset="0.9898" stop-color="#66D7F4"/>
<stop offset="1" stop-color="#67D8F4"/>
</linearGradient>
<linearGradient id="paint63_linear_400_66003" x1="-0.572584" y1="747.322" x2="-0.572584" y2="719.407" gradientUnits="userSpaceOnUse">
<stop stop-color="#0075D9"/>
<stop offset="0.9898" stop-color="#66D7F4"/>
<stop offset="1" stop-color="#67D8F4"/>
</linearGradient>
<linearGradient id="paint64_linear_400_66003" x1="663.256" y1="611.711" x2="663.256" y2="382.837" gradientUnits="userSpaceOnUse">
<stop stop-color="#0075D9"/>
<stop offset="0.9898" stop-color="#66D7F4"/>
<stop offset="1" stop-color="#67D8F4"/>
</linearGradient>
<linearGradient id="paint65_linear_400_66003" x1="1003.94" y1="728.171" x2="1003.94" y2="398.639" gradientUnits="userSpaceOnUse">
<stop stop-color="#0075D9"/>
<stop offset="0.9898" stop-color="#66D7F4"/>
<stop offset="1" stop-color="#67D8F4"/>
</linearGradient>
<linearGradient id="paint66_linear_400_66003" x1="190.318" y1="822.535" x2="190.318" y2="603.302" gradientUnits="userSpaceOnUse">
<stop stop-color="#0075D9"/>
<stop offset="0.9898" stop-color="#66D7F4"/>
<stop offset="1" stop-color="#67D8F4"/>
</linearGradient>
<linearGradient id="paint67_linear_400_66003" x1="835.217" y1="559.385" x2="835.217" y2="389.932" gradientUnits="userSpaceOnUse">
<stop stop-color="#0075D9"/>
<stop offset="0.9898" stop-color="#66D7F4"/>
<stop offset="1" stop-color="#67D8F4"/>
</linearGradient>
<clipPath id="clip0_400_66003">
<rect width="1677" height="958.286" fill="white" transform="translate(-118 -29)"/>
</clipPath>
</defs>
</svg>
